<?xml version="1.0" encoding="utf-8"?>
<!-- Generator: Adobe Illustrator 23.0.2, SVG Export Plug-In . SVG Version: 6.00 Build 0)  -->
<svg version="1.1" id="Camada_1" xmlns="http://www.w3.org/2000/svg" xmlns:xlink="http://www.w3.org/1999/xlink" x="0px" y="0px"
	 viewBox="0 0 20 20" style="enable-background:new 0 0 20 20;" xml:space="preserve">
<style type="text/css">
	.st0{fill-rule:evenodd;clip-rule:evenodd;fill:#FFFFFF;}
</style>
<title>calendar [#1322]</title>
<desc>Created with Sketch.</desc>
<g id="Page-1">
	<g id="Dribbble-Dark-Preview" transform="translate(-60.000000, -2319.000000)">
		<g id="icons" transform="translate(56.000000, 160.000000)">
			<path class="st0" d="M22,2167H6v-3c0-0.5,0.4-1,1-1h1v2h2v-2h8v2h2v-2h1c0.6,0,1,0.4,1,1V2167z M22,2176c0,0.6-0.4,1-1,1H7
				c-0.6,0-1-0.4-1-1v-7h16V2176z M4.1,2176.8c0,1.1,1,2.2,2.1,2.2h16c1.1,0,1.9-1,1.9-2.2c0-0.4,0-12.4,0-13.1c0-2.1-0.3-2.7-4-2.7
				v-2h-2v2h-8v-2H8v2H6c-1.1,0-2,0.9-2,2L4.1,2176.8z"/>
		</g>
	</g>
</g>
</svg>
