<?xml version="1.0" encoding="utf-8"?>
<!-- Generator: Adobe Illustrator 23.0.2, SVG Export Plug-In . SVG Version: 6.00 Build 0)  -->
<svg version="1.1" id="Camada_1" xmlns="http://www.w3.org/2000/svg" xmlns:xlink="http://www.w3.org/1999/xlink" x="0px" y="0px"
	 viewBox="0 0 18 18" style="enable-background:new 0 0 18 18;" xml:space="preserve">
<style type="text/css">
	.st0{fill-rule:evenodd;clip-rule:evenodd;fill:#FFFFFF;}
</style>
<title>coffee [#689]</title>
<desc>Created with Sketch.</desc>
<g id="Page-1">
	<g id="Dribbble-Dark-Preview" transform="translate(-421.000000, -5120.000000)">
		<g id="icons" transform="translate(56.000000, 160.000000)">
			<path class="st0" d="M367,4965c0.6,0,1-0.4,1-1v-3c0-0.6-0.5-1-1-1s-1,0.4-1,1v3C366,4964.6,366.5,4965,367,4965L367,4965z
				 M379.2,4969h-2v3h2C381.6,4972,381.6,4969,379.2,4969L379.2,4969z M375.1,4969H368c-0.6,0-1,0.4-1,1v1.8c0,2.1,1.5,4,3.7,4.2
				c2.4,0.2,4.5-1.6,4.5-4V4969z M379.2,4974h-2.4c-0.9,2.5-3.5,4.3-6.5,4c-3.1-0.4-5.4-3.1-5.4-6.2v-2.8c0-1.1,0.9-2,2-2h10.1h2
				C384.3,4967,384.3,4974,379.2,4974L379.2,4974z M375.1,4965c0.6,0,1-0.4,1-1v-3c0-0.6-0.5-1-1-1c-0.6,0-1,0.4-1,1v3
				C374.1,4964.6,374.6,4965,375.1,4965L375.1,4965z M370.1,4964v-3c0-0.6,0.5-1,1-1s1,0.4,1,1v3c0,0.6-0.5,1-1,1
				S370.1,4964.6,370.1,4964L370.1,4964z"/>
		</g>
	</g>
</g>
</svg>
