<?xml version="1.0" encoding="utf-8"?>
<!-- Generator: Adobe Illustrator 23.0.2, SVG Export Plug-In . SVG Version: 6.00 Build 0)  -->
<svg version="1.1" id="Camada_1" xmlns="http://www.w3.org/2000/svg" xmlns:xlink="http://www.w3.org/1999/xlink" x="0px" y="0px"
	 viewBox="0 0 21 20" style="enable-background:new 0 0 21 20;" xml:space="preserve">
<style type="text/css">
	.st0{fill-rule:evenodd;clip-rule:evenodd;fill:#FFFFFF;}
</style>
<title>done [#1478]</title>
<desc>Created with Sketch.</desc>
<g id="Page-1">
	<g id="Dribbble-Dark-Preview" transform="translate(-139.000000, -400.000000)">
		<g id="icons" transform="translate(56.000000, 160.000000)">
			<path class="st0" d="M97.2,248.2l-4.5,4.2c-0.4,0.4-1.1,0.4-1.5,0l-2.2-2.1c-0.4-0.4-0.4-1,0-1.4c0.4-0.4,1.1-0.4,1.5,0l0.7,0.7
				c0.4,0.4,1.1,0.4,1.5,0l3-2.8c0.4-0.4,1.1-0.4,1.5,0C97.6,247.1,97.6,247.8,97.2,248.2 M101.9,240H85.1c-1.2,0-2.1,0.9-2.1,2v16
				c0,1.1,0.9,2,2.1,2h16.8c1.2,0,2.1-0.9,2.1-2v-16C104,240.9,103.1,240,101.9,240"/>
		</g>
	</g>
</g>
</svg>
