<?xml version="1.0" encoding="utf-8"?>
<!-- Generator: Adobe Illustrator 23.0.2, SVG Export Plug-In . SVG Version: 6.00 Build 0)  -->
<svg version="1.1" id="Capa_1" xmlns="http://www.w3.org/2000/svg" xmlns:xlink="http://www.w3.org/1999/xlink" x="0px" y="0px"
	 viewBox="0 0 512 512" style="enable-background:new 0 0 512 512;" xml:space="preserve">
<style type="text/css">
	.st0{fill:#722183;}
</style>
<g>
	<g>
		<g>
			<rect x="239.3" y="207.4" class="st0" width="4.7" height="15.9"/>
			<path class="st0" d="M259.5,208.9c-1-1.2-2.3-1.8-3.9-1.8c-0.6,0-1.1,0.1-1.6,0.2c-0.5,0.2-0.9,0.4-1.2,0.7
				c-0.3,0.3-0.6,0.6-0.8,0.8c-0.2,0.2-0.4,0.5-0.6,0.9v-2.3h-4.7l0,0.8c0,0.5,0,2.1,0,4.8c0,2.7,0,6.1,0,10.4h4.7v-8.9
				c0-0.5,0.1-1,0.2-1.3c0.2-0.5,0.5-1,0.9-1.4c0.4-0.4,0.9-0.6,1.5-0.6c0.8,0,1.4,0.3,1.8,1c0.4,0.6,0.6,1.5,0.6,2.6v8.5h4.7v-9.1
				C261,211.9,260.5,210.1,259.5,208.9z"/>
			<path class="st0" d="M241.7,199.8c-0.8,0-1.4,0.3-1.9,0.8c-0.5,0.5-0.7,1.2-0.7,2c0,0.8,0.2,1.4,0.7,2c0.5,0.5,1.1,0.8,1.9,0.8h0
				c0.8,0,1.4-0.3,1.9-0.8c0.5-0.5,0.7-1.2,0.7-2c0-0.8-0.3-1.5-0.7-2C243.1,200,242.5,199.8,241.7,199.8z"/>
		</g>
	</g>
</g>
</svg>
